Coordinates
version=1
nRows=19
nColumns=38
inDegrees=no

Units are S.I. units (second, meters, Newtons, ...)
If the header above contains a line with 'inDegrees', this indicates whether rotational values are in degrees (yes) or radians (no).

endheader
time	pelvis_tilt	pelvis_list	pelvis_rotation	pelvis_tx	pelvis_ty	pelvis_tz	hip_flexion_r	hip_adduction_r	hip_rotation_r	knee_angle_r	ankle_angle_r	subtalar_angle_r	mtp_angle_r	hip_flexion_l	hip_adduction_l	hip_rotation_l	knee_angle_l	ankle_angle_l	subtalar_angle_l	mtp_angle_l	lumbar_extension	lumbar_bending	lumbar_rotation	arm_flex_r	arm_add_r	arm_rot_r	elbow_flex_r	pro_sup_r	wrist_flex_r	wrist_dev_r	arm_flex_l	arm_add_l	arm_rot_l	elbow_flex_l	pro_sup_l	wrist_flex_l	wrist_dev_l
4.12	-0.325937	-0.13164	-0.0654655	1.1285	0.922341	-0.407504	0.713527	0.143785	-0.24981	-0.925325	0.661862	0.30518	0	0.60819	-0.224704	-0.0593912	-2.08461	0.308511	-0.0427308	0	-0.0357623	0.232345	0.12765	-0.49951	-0.443371	-0.317755	1.98658	1.65204	0	0	-0.549954	-0.225918	-0.0557395	1.59999	1.72918	0	0
4.13	-0.329915	-0.118301	-0.0602224	1.12809	0.924626	-0.407269	0.649873	0.135472	-0.230796	-0.908837	0.692845	0.31356	0	0.688227	-0.208824	-0.0497282	-2.08088	0.332444	-0.0596159	0	-0.0264131	0.212388	0.148433	-0.458748	-0.440692	-0.315029	2.02412	1.65954	0	0	-0.597271	-0.235454	-0.064455	1.61815	1.70619	0	0
4.14	-0.335329	-0.101952	-0.0535947	1.12867	0.928112	-0.407185	0.578359	0.123223	-0.214515	-0.872049	0.701842	0.319862	0	0.764681	-0.189431	-0.0453557	-2.06007	0.352067	-0.0824297	0	-0.0125456	0.188609	0.166685	-0.42399	-0.435441	-0.309575	2.0703	1.66897	0	0	-0.650846	-0.246347	-0.0731193	1.64853	1.67797	0	0
4.15	-0.342006	-0.0834213	-0.0461366	1.1302	0.932615	-0.407265	0.501484	0.107581	-0.201376	-0.818627	0.685853	0.321923	0	0.835719	-0.167807	-0.0464641	-2.0232	0.368174	-0.10718	0	0.00518756	0.162088	0.18256	-0.3948	-0.429473	-0.299982	2.12306	1.67988	0	0	-0.709622	-0.25644	-0.0835781	1.68808	1.64813	0	0
4.16	-0.34959	-0.0636367	-0.0383637	1.13258	0.937928	-0.407491	0.421751	0.0894803	-0.191297	-0.752818	0.644118	0.318116	0	0.899754	-0.145194	-0.0526841	-1.9715	0.381623	-0.129599	0	0.0258118	0.133951	0.196247	-0.370308	-0.424501	-0.285079	2.17983	1.6917	0	0	-0.772173	-0.263699	-0.0976385	1.73351	1.62023	0	0
4.17	-0.357616	-0.0435215	-0.0307103	1.13566	0.943827	-0.407814	0.341604	0.070067	-0.183746	-0.679372	0.578196	0.307771	0	0.955551	-0.122683	-0.0632751	-1.9063	0.39326	-0.14589	0	0.0481782	0.105248	0.207978	-0.349496	-0.421861	-0.26423	2.23788	1.70374	0	0	-0.836793	-0.266543	-0.116729	1.78179	1.59723	0	0
4.18	-0.365589	-0.0239133	-0.0235197	1.13925	0.950081	-0.40817	0.263376	0.0505089	-0.177878	-0.603446	0.49183	0.291561	0	1.00227	-0.101129	-0.0773238	-1.82879	0.403893	-0.153416	0	0.0711039	0.0769025	0.218042	-0.331464	-0.422375	-0.237533	2.29468	1.71522	0	0	-0.901572	-0.264092	-0.141632	1.83033	1.58103	0	0
4.19	-0.37305	-0.00552994	-0.0170467	1.14315	0.956454	-0.408484	0.189214	0.0318785	-0.172665	-0.530419	0.390569	0.271571	0	1.03943	-0.0811326	-0.0939238	-1.73994	0.414303	-0.151032	0	0.0934769	0.0497056	0.226791	-0.31564	-0.426322	-0.205902	2.34803	1.72532	0	0	-0.964451	-0.256277	-0.17236	1.87715	1.57245	0	0
4.2	-0.379612	0.011032	-0.0114561	1.14715	0.962724	-0.408693	0.120963	0.0151252	-0.166947	-0.465573	0.281199	0.25091	0	1.06688	-0.0630572	-0.112288	-1.64043	0.425237	-0.139124	0	0.114317	0.0243488	0.234605	-0.301879	-0.433487	-0.17101	2.39618	1.73325	0	0	-1.02331	-0.243805	-0.208175	1.92089	1.5712	0	0
4.21	-0.384979	0.0252872	-0.00681542	1.15104	0.968686	-0.40875	0.0600698	0.00106621	-0.159555	-0.413762	0.171213	0.233147	0	1.08464	-0.0470406	-0.131781	-1.53065	0.437298	-0.119357	0	0.132803	0.00145027	0.241822	-0.290462	-0.443251	-0.135123	2.43777	1.73836	0	0	-1.07606	-0.227988	-0.247749	1.9607	1.57619	0	0
4.22	-0.388933	0.0368473	-0.00308707	1.15463	0.97416	-0.408639	0.00751394	-0.0095722	-0.149291	-0.37904	0.0681045	0.221275	0	1.09286	-0.0330302	-0.151889	-1.41085	0.450787	-0.0941724	0	0.148274	-0.0184282	0.248657	-0.281998	-0.454712	-0.100818	2.47178	1.74021	0	0	-1.1208	-0.210495	-0.289387	1.99619	1.5858	0	0
4.23	-0.39132	0.0454189	-0.000122479	1.15776	0.979002	-0.40837	-0.0361766	-0.0161997	-0.135229	-0.364426	-0.0213897	0.217061	0	1.09174	-0.0207945	-0.172111	-1.28133	0.465453	-0.0663023	0	0.160219	-0.0347947	0.255141	-0.277271	-0.466807	-0.0706627	2.49745	1.73861	0	0	-1.15593	-0.193081	-0.331272	2.02726	1.59824	0	0
4.24	-0.392033	0.0508155	0.002333	1.16032	0.9831	-0.407981	-0.0708528	-0.018472	-0.117192	-0.37177	-0.0921357	0.220789	0	1.08157	-0.00993294	-0.191816	-1.14277	0.480268	-0.0384536	0	0.168278	-0.0472662	0.261087	-0.277054	-0.478422	-0.0468718	2.51419	1.73359	0	0	-1.18032	-0.177352	-0.37168	2.05408	1.61179	0	0
4.25	-0.391012	0.0529895	0.0046127	1.16228	0.986369	-0.407525	-0.0966376	-0.0164246	-0.0961282	-0.40173	-0.141355	0.231293	0	1.06276	8.28228e-05	-0.210165	-0.996573	0.493334	-0.0131178	0	0.172261	-0.0556307	0.266114	-0.281932	-0.488499	-0.0310095	2.52155	1.72543	0	0	-1.19337	-0.164585	-0.409145	2.07692	1.62502	0	0
4.26	-0.388262	0.0520766	0.00707242	1.1636	0.988749	-0.407063	-0.113832	-0.0105582	-0.0740241	-0.453807	-0.169019	0.246031	0	1.03604	0.0097963	-0.226205	-0.845189	0.502031	0.0076511	0	0.172182	-0.0599129	0.269717	-0.292142	-0.496113	-0.0237851	2.51919	1.71453	0	0	-1.1951	-0.155626	-0.442568	2.09617	1.63688	0	0
4.27	-0.383868	0.0484329	0.0100176	1.16435	0.99019	-0.406653	-0.122844	-0.00187239	-0.0535458	-0.526461	-0.177595	0.261568	0	1.00256	0.0196196	-0.239076	-0.692455	0.503418	0.0223735	0	0.168287	-0.0604208	0.271372	-0.307468	-0.500546	-0.024992	2.50683	1.70144	0	0	-1.18612	-0.150869	-0.471263	2.11227	1.64671	0	0
4.28	-0.377994	0.0426357	0.0136317	1.16458	0.990647	-0.406343	-0.124173	0.0082045	-0.0374616	-0.617288	-0.171214	0.274289	0	0.964023	0.0296764	-0.24831	-0.543744	0.494874	0.030318	0	0.161026	-0.0577435	0.270641	-0.327205	-0.501326	-0.0336077	2.48431	1.68686	0	0	-1.16757	-0.150314	-0.494928	2.12569	1.65417	0	0
4.29	-0.37085	0.0354303	0.0179272	1.16437	0.990075	-0.406162	-0.118425	0.0180085	-0.0280032	-0.723224	-0.154579	0.281099	0	0.922786	0.0396686	-0.25413	-0.405955	0.474874	0.0318192	0	0.150963	-0.0526901	0.267246	-0.350195	-0.498245	-0.0480234	2.45159	1.67164	0	0	-1.14091	-0.153674	-0.51358	2.13693	1.65919	0	0
4.3	-0.362631	0.0276317	0.0227339	1.16379	0.988436	-0.406114	-0.10632	0.0259386	-0.0262869	-0.840788	-0.131975	0.279852	0	0.881734	0.0487957	-0.257737	-0.287208	0.443729	0.0288499	0	0.138658	-0.046183	0.261099	-0.37492	-0.491337	-0.066338	2.40872	1.65686	0	0	-1.10781	-0.160508	-0.527463	2.14646	1.6619	0	0
